<svg width="175" height="217" viewBox="0 0 175 217" fill="none" xmlns="http://www.w3.org/2000/svg">
<path d="M2 2V214.912H172.099V38.6022L135.55 2H2Z" stroke="#DD4534" stroke-width="4" stroke-miterlimit="10" stroke-linejoin="round"/>
<path d="M135.55 2L172.099 38.6022H135.55V2Z" stroke="#DD4534" stroke-width="4" stroke-miterlimit="10" stroke-linejoin="round"/>
<path d="M34.4718 137.128H41.5492L64.9735 71.6538H76.7363L100.161 137.128H107.238V145.259H81.7313V137.128H89.5403L83.8137 120.76H57.7864L52.0598 137.128H59.973V145.259H34.4663V137.128H34.4718ZM81.2162 112.419L72.2619 86.8748C71.2207 83.8509 71.0124 81.2441 71.0124 81.2441H70.7001C70.7001 81.2441 70.3877 83.8509 69.4506 86.8748L60.3922 112.419H81.2162Z" fill="#DD4021"/>
<path d="M112.976 137.438H121.198V100.326H112.455V92.5055H131.298V137.438H139.628V145.259H112.976V137.438ZM120.993 71.6538H131.61V81.9767H120.993V71.6538Z" fill="#DD4021"/>
</svg>
