<svg width="192" height="174" viewBox="0 0 192 174" fill="none" xmlns="http://www.w3.org/2000/svg">
<path d="M22.1022 32.2376C65.9458 32.2376 109.581 32.2376 153.335 32.2376C151.954 39.2492 150.607 46.0926 149.24 53.0321C105.399 53.0321 61.7063 53.0321 17.9279 53.0321C15.8035 63.8081 13.7007 74.4754 11.5586 85.34C55.4103 85.34 99.0474 85.34 142.796 85.34C140.383 97.4251 138.014 109.334 135.59 121.232C135.5 121.673 134.938 122.206 134.483 122.358C117.518 128.018 100.542 133.643 83.5561 139.239C82.9955 139.423 82.25 139.423 81.7024 139.215C67.0369 133.647 52.3886 128.034 37.7265 122.456C36.9537 122.162 36.7586 121.806 36.9339 121.015C37.3991 118.918 37.7907 116.803 38.2036 114.694C38.7552 111.877 39.2996 109.058 39.8445 106.252C39.5739 106.18 39.4781 106.133 39.3827 106.133C29.1305 106.124 18.878 106.131 8.62576 106.093C7.62464 106.09 7.53881 106.635 7.39326 107.378C6.14426 113.755 4.85955 120.124 3.59644 126.498C2.39455 132.568 1.20527 138.64 0.000976562 144.759C0.439118 144.955 0.790231 145.134 1.15575 145.273C25.6956 154.672 50.2345 164.073 74.7887 173.434C75.4153 173.673 76.2721 173.661 76.9164 173.448C105.276 164.062 133.623 154.634 161.983 145.247C162.867 144.954 163.279 144.535 163.454 143.648C166.244 129.526 169.052 115.408 171.863 101.291C178.031 70.3099 184.204 39.3297 190.372 8.34884C190.922 5.58421 191.452 2.81537 192 0.000300242C137.402 0 83.0069 0 28.5477 0C26.4077 10.703 24.2833 21.3292 22.1022 32.2376Z" fill="#DD4021"/>
<path d="M22.1015 32.2376C24.2826 21.3292 26.407 10.703 28.547 0C83.0062 0 137.401 0 191.999 0C191.451 2.81507 190.922 5.58391 190.371 8.34854C184.203 39.3297 178.03 70.3099 171.862 101.291C169.051 115.408 166.243 129.526 163.453 143.647C163.278 144.534 162.866 144.954 161.982 145.246C133.622 154.634 105.275 164.062 76.9154 173.448C76.2711 173.661 75.4143 173.673 74.7877 173.434C50.2335 164.073 25.6946 154.672 1.15477 145.273C0.789255 145.133 0.438441 144.955 0 144.758C1.20429 138.64 2.39357 132.568 3.59606 126.498C4.85887 120.124 6.14388 113.755 7.39289 107.378C7.53843 106.635 7.62426 106.089 8.62538 106.093C18.8776 106.131 29.1301 106.124 39.3823 106.133C39.4777 106.133 39.5735 106.18 39.8442 106.252C39.2992 109.058 38.7551 111.876 38.2032 114.694C37.7903 116.803 37.3987 118.917 36.9335 121.015C36.7583 121.805 36.9533 122.162 37.7261 122.456C52.3879 128.034 67.0365 133.647 81.702 139.215C82.2496 139.423 82.9951 139.423 83.5557 139.238C100.542 133.643 117.518 128.018 134.482 122.358C134.938 122.206 135.5 121.673 135.59 121.232C138.014 109.334 140.382 97.4248 142.795 85.3397C99.047 85.3397 55.4099 85.3397 11.5582 85.3397C13.7 74.4751 15.8031 63.8078 17.9275 53.0318C61.7059 53.0318 105.399 53.0318 149.24 53.0318C150.606 46.0923 151.954 39.2489 153.335 32.2373C109.58 32.2376 65.9451 32.2376 22.1015 32.2376Z" fill="#DD4021"/>
</svg>
