<svg width="225" height="192" viewBox="0 0 225 192" fill="none" xmlns="http://www.w3.org/2000/svg">
<path d="M222.51 107.234C221.821 106.469 204.52 87.9255 183.233 89.2183C183.288 88.4295 183.312 87.6399 183.312 86.8551C183.312 66.4759 165.918 50.7031 165.174 50.0383C162.135 47.3199 157.514 47.3199 154.475 50.0383C153.731 50.7031 136.337 66.4767 136.337 86.8551C136.337 89.8711 136.713 92.9255 137.472 95.9999H8.01981C3.59127 95.9999 0 99.5823 0 104C0 158.282 27.6579 192 72.1783 192C112.587 192 154.225 166.11 169.818 132.703C175.112 134.894 180.391 136 185.599 136C206.04 136 221.845 118.645 222.51 117.906C225.236 114.867 225.236 110.274 222.51 107.234ZM44.1089 144C37.4758 144 32.0792 138.617 32.0792 132C32.0792 125.383 37.4758 120 44.1089 120C50.7421 120 56.1386 125.383 56.1386 132C56.1386 138.617 50.7421 144 44.1089 144Z" fill="#DD4021"/>
<path d="M32.0792 64H8.01978V88H32.0792V64Z" fill="#DD4021"/>
<path d="M64.1584 64H40.099V88H64.1584V64Z" fill="#DD4021"/>
<path d="M64.1584 32.0001H40.099V56.0001H64.1584V32.0001Z" fill="#DD4021"/>
<path d="M96.2376 32.0001H72.1782V56.0001H96.2376V32.0001Z" fill="#DD4021"/>
<path d="M96.2376 0H72.1782V24H96.2376V0Z" fill="#DD4021"/>
<path d="M96.2376 64H72.1782V88H96.2376V64Z" fill="#DD4021"/>
<path d="M128.317 64H104.257V88H128.317V64Z" fill="#DD4021"/>
</svg>
