<svg width="192" height="205" viewBox="0 0 192 205" fill="none" xmlns="http://www.w3.org/2000/svg">
<path d="M192 75.3578C191.951 62.3933 187.476 49.8338 179.316 39.7559C182.086 28.2338 181.222 16.1374 176.842 5.12575C176.415 4.07935 175.762 3.14045 174.929 2.37666C174.096 1.61287 173.104 1.04319 172.025 0.708643C168.931 -0.351463 157.22 -2.33917 133.355 13.1207C123.092 10.4134 112.503 9.13506 101.889 9.32201C91.2613 9.13268 80.6579 10.411 70.3795 13.1207C45.8964 -2.69253 33.1686 -0.13061 30.6054 0.620299C29.5198 0.969793 28.5249 1.55497 27.6921 2.3339C26.8593 3.11282 26.2092 4.06621 25.7883 5.12575C21.3972 16.1015 20.502 28.1644 23.2251 39.6676C14.7985 49.695 10.3064 62.4422 10.5858 75.5345C10.5858 124.388 38.5602 139.141 64.1925 144.353C62.8768 147.569 61.9711 150.938 61.4966 154.38C61.4504 154.747 61.4504 155.118 61.4966 155.484V169.001C38.1625 170.944 33.1686 157.295 32.6825 155.749C32.5694 155.389 32.4366 155.035 32.2848 154.689C27.7778 145.498 19.8442 138.441 10.188 135.033C8.24236 134.383 6.11798 134.532 4.28221 135.447C2.44645 136.362 1.04967 137.969 0.399167 139.914C-0.25134 141.859 -0.102289 143.982 0.813523 145.817C1.72933 147.652 3.33688 149.048 5.28254 149.698C10.6336 151.63 15.096 155.446 17.8335 160.431C20.927 170.458 33.5664 186.316 61.4083 184.549V197.27C61.4083 199.32 62.2231 201.286 63.6735 202.736C65.1238 204.186 67.091 205 69.1421 205C71.1933 205 73.1604 204.186 74.6108 202.736C76.0612 201.286 76.876 199.32 76.876 197.27V156.058C77.4627 151.558 79.4225 147.347 82.4885 144C83.5626 142.995 84.3257 141.703 84.6873 140.278C85.049 138.852 84.9939 137.353 84.5286 135.958C84.0634 134.563 83.2075 133.331 82.0626 132.407C80.9176 131.484 79.5317 130.908 78.0692 130.748C51.1112 127.612 26.1861 118.734 26.1861 75.2253C26.0069 69.9734 26.9198 64.7416 28.8672 59.8604C30.8145 54.9793 33.7539 50.555 37.4996 46.8674C38.5069 45.7839 39.2028 44.4486 39.514 43.0025C39.8251 41.5565 39.7399 40.0533 39.2673 38.6516C36.6638 31.0902 36.4938 22.9038 38.7812 15.2409C48.2706 17.3823 57.1818 21.5569 64.8995 27.4763C65.8913 28.1323 67.0182 28.5564 68.1965 28.7169C69.3748 28.8775 70.5741 28.7706 71.7053 28.4039C81.5247 25.4167 91.7614 24.0296 102.022 24.296C112.268 24.029 122.491 25.4161 132.295 28.4039C133.425 28.7738 134.625 28.8825 135.804 28.7218C136.983 28.5611 138.11 28.1353 139.1 27.4763C146.534 21.7837 155.042 17.6519 164.114 15.3293C166.367 23.077 166.166 31.3316 163.539 38.9608C163.107 40.2339 163.018 41.5986 163.282 42.9171C163.546 44.2355 164.153 45.461 165.042 46.4699C172.358 54.2775 176.502 64.5292 176.665 75.2253C176.665 118.645 150.458 127.656 124.782 130.748C123.244 130.919 121.794 131.55 120.621 132.557C119.448 133.564 118.606 134.902 118.205 136.395C117.804 137.888 117.863 139.467 118.374 140.926C118.885 142.386 119.824 143.657 121.069 144.574C123.809 146.65 126.991 152.481 126.991 162.242V197.226C126.991 199.276 127.806 201.242 129.257 202.692C130.707 204.141 132.674 204.956 134.725 204.956C136.776 204.956 138.744 204.141 140.194 202.692C141.644 201.242 142.459 199.276 142.459 197.226V162.242C142.54 156.091 141.414 149.983 139.145 144.265C159.916 139.848 192 126.199 192 75.3578Z" fill="#DD4021"/>
</svg>
