<svg width="201" height="201" viewBox="0 0 201 201" fill="none" xmlns="http://www.w3.org/2000/svg">
<path d="M132.66 104.52C131.615 104.52 130.61 104.118 129.806 103.354C129.243 102.791 128.68 102.229 128.117 101.666C120.841 94.4298 112.56 86.229 112.56 76.38C112.56 65.2848 121.565 56.28 132.66 56.28C143.755 56.28 152.76 65.2848 152.76 76.38C152.76 78.591 150.951 80.4 148.74 80.4C146.529 80.4 144.72 78.591 144.72 76.38C144.72 69.747 139.293 64.32 132.66 64.32C126.027 64.32 120.6 69.747 120.6 76.38C120.6 82.8924 127.595 89.8068 133.786 95.9574C134.348 96.5202 134.951 97.1232 135.514 97.686C137.082 99.2538 137.082 101.786 135.514 103.354C134.71 104.118 133.705 104.52 132.66 104.52Z" fill="#DD4021"/>
<path d="M132.66 144.72C121.565 144.72 112.56 135.715 112.56 124.62C112.56 122.409 114.369 120.6 116.58 120.6C118.791 120.6 120.6 122.409 120.6 124.62C120.6 131.253 126.027 136.68 132.66 136.68C139.293 136.68 144.72 131.253 144.72 124.62C144.72 117.263 136.841 109.907 129.926 103.435C128.318 101.907 128.198 99.3744 129.725 97.7664C131.253 96.1584 133.786 96.078 135.394 97.5654C143.554 105.163 152.76 113.766 152.76 124.62C152.76 135.715 143.755 144.72 132.66 144.72Z" fill="#DD4021"/>
<path d="M84.4199 64.32H68.3399C66.1289 64.32 64.3199 62.511 64.3199 60.3C64.3199 58.089 66.1289 56.28 68.3399 56.28H84.4199C86.6309 56.28 88.4399 58.089 88.4399 60.3C88.4399 62.511 86.6309 64.32 84.4199 64.32Z" fill="#DD4021"/>
<path d="M64.32 144.72C55.4358 144.72 48.24 137.524 48.24 128.64V124.62C48.24 122.409 50.049 120.6 52.26 120.6C54.471 120.6 56.28 122.409 56.28 124.62V128.64C56.28 133.062 59.898 136.68 64.32 136.68C68.742 136.68 72.36 133.062 72.36 128.64V60.3C72.36 58.089 74.169 56.28 76.38 56.28C78.591 56.28 80.4 58.089 80.4 60.3V128.64C80.4 137.524 73.2042 144.72 64.32 144.72Z" fill="#DD4021"/>
<path d="M196.98 201H4.02C1.809 201 0 199.191 0 196.98V4.02C0 1.809 1.809 0 4.02 0H196.98C199.191 0 201 1.809 201 4.02V196.98C201 199.191 199.191 201 196.98 201ZM8.04 192.96H192.96V8.04H8.04V192.96Z" fill="#DD4021"/>
</svg>
