<svg width="221" height="216" viewBox="0 0 221 216" fill="none" xmlns="http://www.w3.org/2000/svg">
<path d="M110.5 38.5504C69.3079 38.5504 35.7952 72.0498 35.7952 113.226C35.7952 154.404 69.3079 187.904 110.5 187.904C151.692 187.904 185.205 154.404 185.205 113.226C185.205 72.0498 151.692 38.5504 110.5 38.5504ZM178.613 126.006L132.942 115.586C133.023 114.81 133.067 114.023 133.067 113.226C133.067 108.881 131.811 104.834 129.674 101.388L166.306 72.1877C174.789 83.6836 179.815 97.8768 179.815 113.226C179.815 117.593 179.39 121.86 178.613 126.006ZM110.5 130.396C101.028 130.396 93.3226 122.694 93.3226 113.226C93.3226 103.76 101.028 96.0576 110.5 96.0576C119.972 96.0576 127.677 103.76 127.677 113.226C127.677 122.694 119.972 130.396 110.5 130.396ZM162.932 67.9835L126.322 97.1666C122.85 93.7493 118.28 91.4549 113.195 90.8464V44.0063C133.04 44.7695 150.762 53.9089 162.932 67.9835ZM107.805 44.0063V90.8464C102.72 91.4549 98.15 93.7493 94.6784 97.1666L58.0677 67.9835C70.2385 53.9089 87.9602 44.7695 107.805 44.0063ZM54.6943 72.1877L91.3264 101.388C89.1888 104.834 87.9328 108.881 87.9328 113.226C87.9328 114.023 87.9772 114.81 88.0583 115.586L42.3867 126.006C41.61 121.86 41.185 117.593 41.185 113.226C41.185 97.8768 46.2113 83.6836 54.6943 72.1877ZM43.5805 131.258L89.281 120.831C90.9807 125.553 94.2004 129.545 98.363 132.213L78.0298 174.419C61.2891 165.506 48.622 149.933 43.5805 131.258ZM82.8819 176.762L103.216 134.555C105.505 135.339 107.949 135.784 110.5 135.784C113.051 135.784 115.495 135.339 117.784 134.555L138.118 176.762C129.65 180.454 120.313 182.516 110.5 182.516C100.687 182.516 91.3499 180.454 82.8819 176.762ZM142.97 174.419L122.637 132.213C126.8 129.545 130.019 125.553 131.719 120.831L177.42 131.258C172.378 149.933 159.711 165.506 142.97 174.419Z" fill="#DD4021"/>
<path d="M218.904 135.197L203.18 131.611C204.359 125.663 204.99 119.52 204.99 113.231C204.99 91.9546 197.911 72.3037 185.991 56.4953L198.633 46.4188C199.797 45.4902 199.987 43.796 199.06 42.6333C198.133 41.4678 196.435 41.2784 195.273 42.2044L182.614 52.2935C165.811 32.4545 140.989 19.6305 113.195 18.8464V2.69384C113.195 1.20486 111.988 0 110.5 0C109.012 0 107.805 1.20486 107.805 2.69384V18.8464C80.0102 19.6305 55.1887 32.4542 38.385 52.2929L25.7274 42.2044C24.5668 41.2784 22.868 41.4678 21.9403 42.6333C21.0126 43.796 21.2034 45.4902 22.3666 46.4188L35.0084 56.4946C23.0879 72.303 16.0083 91.9543 16.0083 113.231C16.0083 119.52 16.6398 125.663 17.8183 131.611L2.09559 135.197C0.645496 135.526 -0.262458 136.97 0.0678263 138.423C0.353371 139.672 1.46397 140.517 2.693 140.517C2.89169 140.517 3.09302 140.496 3.29567 140.448L19.0044 136.865C25.7827 163.069 43.5702 184.874 67.1061 197.092L60.0941 211.646C59.448 212.985 60.0112 214.595 61.3521 215.242C61.7297 215.423 62.1271 215.508 62.5206 215.508C63.5233 215.508 64.4852 214.947 64.9497 213.982L71.9579 199.436C83.7374 204.72 96.7751 207.684 110.5 207.684C124.225 207.684 137.262 204.719 149.042 199.436L156.049 213.982C156.514 214.947 157.475 215.508 158.478 215.508C158.87 215.508 159.269 215.423 159.647 215.242C160.987 214.595 161.551 212.985 160.905 211.646L153.894 197.092C177.429 184.874 195.217 163.068 201.994 136.865L217.704 140.448C217.907 140.496 218.108 140.517 218.307 140.517C219.536 140.517 220.647 139.67 220.932 138.423C221.262 136.97 220.354 135.526 218.904 135.197ZM110.5 202.296C61.3692 202.296 21.3982 162.341 21.3982 113.231C21.3982 64.1209 61.3692 24.1657 110.5 24.1657C159.631 24.1657 199.601 64.1209 199.601 113.231C199.601 162.341 159.631 202.296 110.5 202.296Z" fill="#DD4021"/>
</svg>
