<svg width="150" height="185" viewBox="0 0 150 185" fill="none" xmlns="http://www.w3.org/2000/svg">
<path d="M80.9896 63C86.9115 63 93.2386 56.1444 95.04 54.1106C96.8413 52.0768 100.354 47.5978 99.9711 44.6499C99.7909 43.3245 99.3406 39.8053 81.2148 38H80.787C62.6611 39.7824 62.1883 43.3245 62.0307 44.6499C61.6254 47.5978 65.3406 52.2596 66.9618 54.1106C68.583 55.9616 75.0678 63 80.9896 63ZM80.9896 42.5704C85.8999 42.8967 90.742 43.9118 95.3777 45.5868C94.3194 48.8547 86.0108 58.4296 80.9896 58.4296C75.9684 58.4296 67.4797 48.6261 66.5565 45.6097C71.2065 43.945 76.0663 42.9601 80.9896 42.6846V42.5704Z" fill="#DD4021"/>
<path d="M145.304 135.534C143.453 135.543 141.629 135.975 139.972 136.798C140.108 134.699 140.22 132.713 140.288 130.976C140.288 130.976 140.288 130.773 140.288 130.682V130.321C140.288 126.079 140.288 123.19 140.288 122.626V119.851C140.288 97.8934 114.691 62.2383 111.144 57.4091L107.891 28.682C107.891 19.6554 105.27 12.6824 100.187 7.65003C95.0511 2.88922 88.3498 0.168402 81.345 0C74.3316 0.158762 67.6199 2.88054 62.4805 7.65003C57.3746 12.6824 54.7991 19.7457 54.7539 28.682L51.4781 57.4091C47.8859 62.2383 22.3566 97.8934 22.3566 119.851V122.626C22.3566 123.145 22.2437 125.763 22.3566 129.622C14.4268 126.553 5.45763 123.777 1.34584 129.87C-3.17261 136.64 4.62172 144.832 10.9024 151.421C12.9764 153.349 14.7777 155.551 16.2567 157.965C16.4149 159.003 14.246 159.883 11.3994 160.921C9.0055 161.548 6.79731 162.74 4.9606 164.397C4.40361 164.991 4.00916 165.718 3.81527 166.509C3.62138 167.299 3.63457 168.126 3.85358 168.91C4.77986 172.092 8.82388 176.222 31.9584 182.924C34.4433 183.651 36.9709 184.224 39.5268 184.639C40.9749 184.882 42.4411 185.003 43.9097 185C45.4253 184.986 46.937 184.843 48.4281 184.571C49.918 184.851 51.4305 184.995 52.9466 185H109.653C110.331 185 110.986 185 111.619 185C112.251 185 112.884 185 113.516 185C117.672 184.994 121.768 184.008 125.47 182.122C129.173 180.236 132.376 177.503 134.821 174.145C136.354 172.06 137.757 169.882 139.023 167.624V167.624C150.839 146.682 150.839 140.882 149.28 137.971C148.884 137.257 148.309 136.658 147.612 136.231C146.916 135.804 146.121 135.564 145.304 135.534ZM26.8751 119.738C26.8751 98.1416 55.1832 59.8914 55.4769 59.5078C55.7124 59.1905 55.8604 58.817 55.9062 58.4246L59.182 29.0656V28.8174C59.182 21.0997 61.4413 15.0518 65.5305 10.877C69.8698 6.93393 75.481 4.67601 81.345 4.51329V4.51329C87.1694 4.70465 92.7355 6.96052 97.0467 10.877C101.249 15.0518 103.372 21.0996 103.372 28.9302C103.362 29.0126 103.362 29.096 103.372 29.1784L106.716 58.6503C106.768 59.0411 106.915 59.4132 107.145 59.7335C107.439 60.1171 135.77 98.3672 135.77 119.963V129.532C135.77 132.127 135.521 135.354 135.205 138.897C133.985 139.303 133.104 139.416 132.72 138.897C132.11 136.127 131.874 133.289 132.019 130.457C131.884 122.107 131.726 111.885 125.536 108.996C122.689 97.5774 118.984 89.0924 114.375 83.3831C114.201 83.1212 113.975 82.8984 113.71 82.7289C113.445 82.5595 113.148 82.4472 112.837 82.3991C112.526 82.3511 112.209 82.3683 111.905 82.4499C111.601 82.5314 111.318 82.6754 111.073 82.8726C110.828 83.0698 110.627 83.3159 110.483 83.5951C110.339 83.8743 110.255 84.1805 110.236 84.4941C110.217 84.8077 110.264 85.1217 110.374 85.4162C110.484 85.7106 110.654 85.9789 110.873 86.2039C114.849 91.1685 118.125 98.5026 120.723 108.342C117.748 109.126 115.196 111.036 113.607 113.667C109.653 93.6509 96.7078 78.9826 81.3224 78.9826C63.7005 78.9826 49.3318 98.1416 47.8859 122.423C44.0452 118.948 41.5827 117.91 39.7979 117.639C42.6445 102.926 46.5756 92.5225 51.7718 86.046C52.1437 85.5811 52.3168 84.9883 52.2533 84.3966C52.1899 83.8049 51.895 83.2622 51.4329 82.8866C51.2018 82.6992 50.9359 82.5592 50.6505 82.4747C50.365 82.3903 50.0657 82.363 49.7697 82.3944C49.4737 82.4259 49.1868 82.5155 48.9255 82.658C48.6643 82.8006 48.4338 82.9933 48.2474 83.2251C42.1701 90.7623 37.6742 103.106 34.692 120.663C34.1512 122.104 33.8979 123.638 33.9465 125.176C33.5624 127.704 33.2009 130.299 32.862 133.007C30.8353 132.68 28.8604 132.088 26.9881 131.247C26.9881 130.509 26.9881 129.81 26.9881 129.148L26.8751 119.738ZM86.2927 156.882C86.5843 159.455 87.0218 162.009 87.6031 164.532C87.8584 165.647 88.1751 166.747 88.552 167.827C86.2505 168.742 83.7994 169.224 81.3224 169.249C77.099 169.199 72.9859 167.895 69.5067 165.502C70.4573 162.027 70.6851 158.394 70.1761 154.827C69.6671 151.26 68.4321 147.836 66.5471 144.764C65.1812 142.547 63.6719 140.421 62.0287 138.4C58.1428 133.458 54.9121 129.667 52.201 126.778C52.201 126.643 52.201 126.508 52.201 126.372C52.201 102.723 65.2368 83.4959 81.2547 83.4959C95.7589 83.4959 107.778 99.2925 109.947 119.783C109.021 121.633 108.162 123.529 107.371 125.334C106.389 127.992 105.051 130.504 103.395 132.804C102.469 133.345 100.842 131.675 98.8766 129.464C97.369 127.534 95.426 125.987 93.206 124.951C92.4367 124.65 91.6021 124.557 90.7855 124.68C89.9689 124.803 89.1987 125.137 88.552 125.65C85.9765 127.659 83.6946 132.984 86.2927 156.882ZM48.4733 180.013C46.8493 180.372 45.1886 180.539 43.5256 180.509C42.4441 180.486 41.3651 180.396 40.2949 180.238L38.4875 179.877C36.7705 179.539 35.0309 179.155 33.2687 178.636C8.71092 171.505 8.23648 167.804 8.23648 167.669C8.27873 167.561 8.33994 167.462 8.41722 167.376C9.77157 166.352 11.3034 165.587 12.9357 165.119C16.5052 163.81 21.3626 162.027 20.7074 157.288C20.3911 155.032 18.1093 152.482 14.1105 148.262C9.20794 143.117 2.49804 136.076 5.07356 132.33C5.56801 131.783 6.18888 131.366 6.88199 131.114C7.57509 130.862 8.31935 130.784 9.0498 130.886C12.7775 130.886 18.0867 132.917 22.6052 134.654L23.3281 134.948L24.9548 135.579L27.214 136.459C28.8482 137.131 30.5657 137.579 32.3198 137.791C32.9181 137.851 33.5223 137.805 34.1046 137.655C35.3339 137.384 36.4105 136.648 37.1094 135.602C38.3516 133.102 38.8159 130.289 38.4423 127.523C38.4423 126.936 38.4423 126.35 38.4423 125.74C38.3452 124.604 38.4836 123.459 38.849 122.378C38.8901 122.283 38.9518 122.198 39.0297 122.13C39.1653 122.13 41.063 121.656 47.8859 128.674C48.6089 129.419 49.3996 130.276 50.1451 131.201C50.8907 132.127 51.7944 133.052 52.7206 134.113C54.4602 136.144 56.358 138.468 58.5269 141.198C60.0135 143.086 61.3865 145.06 62.6386 147.111C65.4675 151.702 66.5125 157.17 65.5756 162.479C65.4252 163.242 65.2291 163.995 64.9882 164.735C64.7556 165.504 64.4765 166.257 64.1523 166.992C63.6225 168.339 62.9483 169.626 62.1416 170.828C58.9599 175.554 54.0547 178.85 48.4733 180.013ZM58.7302 180.532C61.5782 178.625 64.0326 176.188 65.9597 173.356C66.7195 172.216 67.3989 171.024 67.993 169.79C71.9754 172.336 76.5944 173.713 81.3224 173.762C84.4853 173.741 87.6147 173.113 90.5401 171.911C92.5426 175.363 95.3092 178.312 98.6281 180.532H58.7302ZM135.115 165.457C133.939 167.552 132.633 169.572 131.206 171.505C131.048 171.731 130.845 171.911 130.664 172.137C128.366 175.101 125.349 177.432 121.898 178.907C118.688 180.252 115.2 180.801 111.732 180.509C110.822 180.452 109.916 180.339 109.021 180.171C106.042 179.569 103.222 178.35 100.743 176.594C98.2644 174.837 96.1817 172.581 94.6293 169.971C94.2472 169.328 93.9003 168.665 93.59 167.985C93.2671 167.301 92.9806 166.6 92.7315 165.886C92.445 165.149 92.2035 164.396 92.0086 163.629C91.4595 161.242 91.0596 158.823 90.8112 156.386C88.0323 130.976 91.2856 129.148 91.4212 129.08H91.7375C93.1985 129.959 94.4851 131.099 95.533 132.443C98.1085 135.241 101.61 139.055 105.745 136.64C107.371 135.692 108.614 133.526 110.263 129.87C110.67 128.99 111.099 128.065 111.573 127.004C112.048 125.943 112.229 125.492 112.59 124.747C113.223 123.326 113.923 121.882 114.623 120.505C116.77 116.398 119.142 112.877 121.83 112.539C122.168 112.494 122.51 112.494 122.847 112.539C127.365 113.464 127.365 123.168 127.524 130.276C127.296 133.689 127.655 137.117 128.585 140.409C128.734 140.735 128.916 141.045 129.128 141.334C129.75 142.189 130.613 142.84 131.606 143.206C132.599 143.571 133.679 143.634 134.708 143.387C135.476 143.235 136.231 143.023 136.967 142.756C137.803 142.462 138.616 142.124 139.385 141.785L140.04 141.469C141.536 140.659 143.166 140.124 144.852 139.89C144.964 139.876 145.078 139.876 145.191 139.89C145.191 139.89 147.653 143.207 135.115 165.457Z" fill="#DD4021"/>
</svg>
