<svg width="138" height="218" viewBox="0 0 138 218" fill="none" xmlns="http://www.w3.org/2000/svg">
<path d="M18.9712 0.594238C8.47702 0.594238 0 9.07971 0 19.5739V198.228C0 208.725 8.47702 217.209 18.9712 217.209H119.023C129.505 217.209 137.995 208.725 137.995 198.228V33.9689C138.01 33.8057 137.99 33.641 137.934 33.4867C137.879 33.3324 137.79 33.1922 137.674 33.076L121.595 16.998L105.517 0.920007C105.465 0.869554 105.408 0.824323 105.347 0.784965C105.314 0.766383 105.28 0.749484 105.245 0.734328C105.213 0.715746 105.179 0.698847 105.144 0.683691C105.111 0.670829 105.077 0.659556 105.043 0.649924C104.971 0.631409 104.898 0.620118 104.823 0.616183C104.79 0.614651 104.756 0.614651 104.722 0.616183L18.9712 0.594238ZM18.9712 2.8308H103.61V16.0004C103.61 26.4963 112.1 34.9834 122.6 34.9834H135.767V173.217H2.22813V19.5772C2.22813 10.2799 9.6738 2.83249 18.9712 2.8308ZM10.6073 184.408C10.9685 184.408 11.2774 184.459 11.5272 184.582C11.7905 184.7 12.0133 184.857 12.2007 185.056C12.4016 185.256 12.5991 185.511 12.7999 185.828C13.0059 186.14 13.2152 186.469 13.4346 186.814L21.147 198.488V186.704C21.147 185.941 21.3158 185.369 21.6331 184.989C21.969 184.601 22.4147 184.407 22.9734 184.407C23.549 184.407 24.0047 184.601 24.3356 184.989C24.6715 185.367 24.8352 185.939 24.8352 186.704V202.286C24.8352 204.023 24.1161 204.895 22.6746 204.895C22.3168 204.895 21.991 204.845 21.7006 204.743C21.4154 204.642 21.1419 204.478 20.8921 204.256C20.6372 204.033 20.406 203.769 20.1916 203.469C19.9722 203.167 19.7578 202.853 19.5383 202.541L12.0133 191V202.608C12.0133 203.363 11.8395 203.935 11.4867 204.323C11.1339 204.711 10.6866 204.904 10.138 204.904C9.56577 204.904 9.11508 204.711 8.77073 204.323C8.42807 203.925 8.25759 203.354 8.25759 202.608V187.323C8.25759 186.675 8.32511 186.167 8.47196 185.798C8.64582 185.392 8.92772 185.063 9.32608 184.81C9.72276 184.55 10.1515 184.418 10.6073 184.418V184.408ZM37.9441 184.408C39.9983 184.408 41.7623 184.83 43.2274 185.666C44.7061 186.493 45.8219 187.678 46.5814 189.219C47.336 190.75 47.7158 192.554 47.7158 194.624C47.7158 196.158 47.5065 197.546 47.0946 198.8C46.6793 200.051 46.0582 201.138 45.2277 202.056C44.3972 202.976 43.3793 203.677 42.1741 204.163C40.9672 204.651 39.5831 204.892 38.0251 204.892C36.4789 204.892 35.0897 204.645 33.8625 204.151C32.6387 203.646 31.6158 202.936 30.7988 202.029C29.9768 201.118 29.3556 200.024 28.9319 198.746C28.5167 197.465 28.3108 196.084 28.3108 194.597C28.3108 193.074 28.5251 191.677 28.9589 190.407C29.4012 189.136 30.0342 188.056 30.8647 187.163C31.6918 186.272 32.7012 185.592 33.8929 185.124C35.0812 184.646 36.4299 184.407 37.9441 184.408ZM108.28 184.408C108.902 184.408 109.393 184.611 109.751 185.016C110.12 185.421 110.304 186.03 110.304 186.839V197.218C110.304 198.116 110.254 198.884 110.186 199.514C110.119 200.144 109.945 200.788 109.673 201.435C109.221 202.524 108.48 203.373 107.443 203.985C106.408 204.591 105.148 204.892 103.66 204.892C102.317 204.892 101.196 204.681 100.293 204.257C99.405 203.835 98.6809 203.15 98.1323 202.205C97.847 201.702 97.609 201.121 97.4301 200.464C97.2529 199.806 97.1583 199.178 97.1583 198.584C97.1583 197.954 97.3373 197.472 97.69 197.136C98.0378 196.803 98.4901 196.641 99.0387 196.641C99.5704 196.641 99.9722 196.793 100.241 197.095C100.512 197.404 100.718 197.883 100.86 198.528C101.012 199.222 101.169 199.774 101.321 200.191C101.473 200.606 101.731 200.962 102.094 201.259C102.455 201.558 102.965 201.705 103.635 201.705C105.407 201.705 106.295 200.407 106.295 197.802V186.842C106.295 186.03 106.471 185.424 106.824 185.019C107.18 184.613 107.668 184.41 108.284 184.41L108.28 184.408ZM121.818 184.408C123.037 184.408 124.083 184.56 124.967 184.871C125.86 185.166 126.598 185.568 127.184 186.071C127.768 186.566 128.196 187.089 128.47 187.637C128.737 188.186 128.875 188.723 128.875 189.244C128.875 189.724 128.701 190.152 128.357 190.542C128.028 190.924 127.607 191.111 127.103 191.111C126.642 191.111 126.294 190.993 126.048 190.77C125.816 190.539 125.556 190.158 125.28 189.636C124.918 188.888 124.484 188.309 123.98 187.894C123.475 187.47 122.667 187.258 121.55 187.258C120.513 187.258 119.674 187.487 119.036 187.946C118.405 188.397 118.089 188.942 118.089 189.582C118.089 189.979 118.191 190.323 118.415 190.608C118.629 190.9 118.928 191.145 119.303 191.354C119.683 191.56 120.068 191.721 120.456 191.842C120.839 191.96 121.482 192.127 122.372 192.355C123.489 192.614 124.498 192.904 125.401 193.218C126.313 193.533 127.081 193.913 127.71 194.366C128.353 194.816 128.845 195.387 129.197 196.084C129.559 196.768 129.737 197.607 129.737 198.608C129.737 199.809 129.429 200.885 128.804 201.837C128.191 202.792 127.29 203.543 126.102 204.083C124.913 204.624 123.502 204.892 121.872 204.892C119.919 204.892 118.307 204.526 117.034 203.785C116.133 203.253 115.4 202.547 114.833 201.663C114.274 200.77 113.993 199.907 113.993 199.068C113.993 198.581 114.163 198.165 114.494 197.826C114.837 197.473 115.27 197.299 115.794 197.299C116.217 197.299 116.57 197.434 116.86 197.706C117.156 197.973 117.409 198.375 117.615 198.906C117.87 199.536 118.138 200.064 118.429 200.488C118.722 200.912 119.137 201.263 119.669 201.543C120.201 201.811 120.898 201.948 121.764 201.948C122.952 201.948 123.917 201.673 124.66 201.124C125.404 200.566 125.781 199.875 125.781 199.043C125.781 198.386 125.575 197.855 125.168 197.448C124.775 197.034 124.258 196.722 123.619 196.503C122.983 196.288 122.139 196.057 121.077 195.816C119.652 195.48 118.459 195.097 117.495 194.654C116.538 194.204 115.78 193.596 115.213 192.828C114.654 192.055 114.372 191.094 114.372 189.952C114.372 188.861 114.673 187.892 115.265 187.047C115.859 186.199 116.717 185.551 117.848 185.1C118.972 184.641 120.295 184.41 121.818 184.408ZM53.6608 184.744H58.8902C60.2524 184.744 61.4188 184.862 62.391 185.126C63.3599 185.377 64.2444 185.848 65.0395 186.542C67.0988 188.308 68.1352 190.993 68.1352 194.597C68.1352 195.785 68.034 196.871 67.823 197.853C67.612 198.835 67.2946 199.72 66.8625 200.515C66.4287 201.297 65.875 202.002 65.2015 202.623C64.6698 203.101 64.0891 203.484 63.4595 203.771C62.8249 204.063 62.1463 204.262 61.4188 204.377C60.6946 204.495 59.881 204.556 58.9712 204.556H53.7402C53.0126 204.556 52.464 204.438 52.0927 204.23C51.7213 204.002 51.4816 203.695 51.3652 203.297C51.247 202.89 51.1964 202.368 51.1964 201.73V187.204C51.1964 186.339 51.3922 185.715 51.7804 185.327C52.1653 184.938 52.7898 184.744 53.6574 184.744H53.6608ZM74.1191 184.744H84.7129C85.3526 184.744 85.8252 184.896 86.1341 185.178C86.4464 185.458 86.6017 185.828 86.6017 186.285C86.6017 186.753 86.4498 187.134 86.1341 187.423C85.8252 187.702 85.3526 187.84 84.7129 187.84H75.6737V192.703H83.9938C84.6099 192.703 85.0657 192.838 85.361 193.123C85.6683 193.395 85.8202 193.753 85.8202 194.204C85.8202 194.656 85.6683 195.026 85.3746 195.311C85.0758 195.593 84.62 195.733 83.9938 195.733H75.6737V201.369H85.0251C85.6564 201.369 86.1291 201.521 86.4414 201.811C86.7671 202.103 86.9292 202.488 86.9292 202.976C86.9292 203.445 86.7773 203.823 86.4414 204.124C86.1291 204.409 85.6564 204.556 85.0251 204.556H74.1191C73.2447 204.556 72.6151 204.36 72.2252 203.975C71.8471 203.587 71.658 202.963 71.658 202.095V187.204C71.658 186.628 71.7424 186.159 71.918 185.799C72.0868 185.43 72.3518 185.166 72.713 185.004C73.0827 184.834 73.5519 184.744 74.1191 184.744ZM37.9441 187.597C37.144 187.597 36.3996 187.749 35.7159 188.056C35.0407 188.355 34.4567 188.79 33.9604 189.369C33.4743 189.947 33.0844 190.684 32.7991 191.586C32.5172 192.479 32.3788 193.485 32.3788 194.6C32.3788 195.725 32.5138 196.742 32.7991 197.65C33.0844 198.562 33.4861 199.322 34.0009 199.924C34.5225 200.517 35.1167 200.962 35.7818 201.259C36.4569 201.558 37.198 201.705 37.9981 201.705C39.0244 201.705 39.9679 201.45 40.8254 200.939C41.6863 200.422 42.375 199.627 42.8797 198.557C43.3929 197.485 43.6477 196.167 43.6477 194.6C43.6477 193.147 43.4148 191.894 42.9455 190.831C42.478 189.768 41.8078 188.964 40.9318 188.424C40.0658 187.872 39.0699 187.6 37.9441 187.597ZM55.2138 187.921V201.369H58.2555C58.9223 201.369 59.4438 201.369 59.8236 201.318C60.1984 201.268 60.5917 201.2 60.9985 201.05C61.4053 200.898 61.753 200.701 62.0518 200.442C63.3971 199.305 64.0672 197.35 64.0672 194.578C64.0672 192.622 63.7668 191.159 63.1726 190.185C62.5885 189.214 61.8593 188.596 60.9985 188.333C60.1325 188.061 59.086 187.928 57.8622 187.928L55.2138 187.921ZM92.2919 200.822C92.8591 200.822 93.3418 201.023 93.7385 201.421C94.1453 201.805 94.3462 202.279 94.3462 202.838C94.3462 203.481 94.1453 203.985 93.7385 204.352C93.3418 204.713 92.8725 204.892 92.3324 204.892C91.7737 204.892 91.2926 204.713 90.8892 204.352C90.4841 203.994 90.2781 203.489 90.2781 202.838C90.2781 202.287 90.4739 201.815 90.8639 201.421C91.247 201.023 91.7247 200.822 92.2919 200.822Z" fill="#DD4534"/>
</svg>
