<svg width="179" height="215" viewBox="0 0 179 215" fill="none" xmlns="http://www.w3.org/2000/svg">
<path d="M153.208 146.503C153.208 145.599 152.476 144.865 151.573 144.865C150.671 144.865 149.938 145.599 149.938 146.503V191.624H34.228V16.2053C34.3588 15.3317 34.2716 14.4581 33.9228 13.6063C33.029 11.4878 30.849 10.1556 29.105 9.63144C25.5952 8.58312 22.0418 8.88888 18.5974 9.21648L15.1312 9.5004L15.1094 19.6342C12.9076 19.4813 10.8584 19.0882 9.02719 18.4548C6.91259 17.7341 5.19039 16.4674 4.16579 14.873C3.66439 14.1305 3.38099 13.3224 3.31559 12.5362V11.5752V11.4878C3.42459 10.6798 3.75159 9.91536 4.27479 9.23832C5.80079 7.27272 8.30779 6.1152 10.1608 5.48184C15.8724 3.53808 22.2162 3.276 27.6662 3.276H149.938V74.9025C149.938 75.8066 150.671 76.5405 151.573 76.5405C152.476 76.5405 153.208 75.8066 153.208 74.9025V1.65984C153.208 1.65329 153.212 1.64674 153.212 1.638C153.212 1.22522 153.042 0.85176 152.783 0.561288C152.665 0.430248 152.526 0.3276 152.373 0.24024C152.133 0.100464 151.872 0 151.577 0H27.6662C21.9328 0 15.262 0.28392 9.11439 2.38056C5.80079 3.4944 3.31559 5.1324 1.68059 7.22904C0.394394 8.88888 -0.172407 10.8763 0.0455934 12.8419V202.894C-0.150607 204.706 0.307193 206.606 1.41899 208.31C2.85779 210.494 5.16859 212.219 7.95899 213.18C10.7276 214.141 13.845 214.6 17.2894 214.6C20.3196 214.6 23.5896 214.229 27.0994 213.486C28.233 213.246 29.4538 212.962 30.5874 212.394C31.9608 211.717 33.029 210.712 33.6612 209.533C33.683 209.467 33.7266 209.424 33.7266 209.358C34.0318 209.052 34.228 208.638 34.228 208.179V194.9H151.543C151.553 194.9 151.562 194.907 151.573 194.907C152.024 194.907 152.434 194.723 152.731 194.426C153.027 194.131 153.212 193.721 153.212 193.262C153.212 193.256 153.208 193.249 153.208 193.24V146.503ZM30.958 191.624V194.9V207.742C30.8708 207.829 30.8054 207.917 30.7618 208.004C30.4566 208.572 29.8898 209.074 29.1268 209.467C28.3638 209.839 27.4918 210.057 26.4236 210.297C19.622 211.739 13.6052 211.651 9.02719 210.079C6.91259 209.358 5.19039 208.092 4.16579 206.519C3.66439 205.755 3.38099 204.947 3.31559 204.16C3.27199 203.833 3.27199 203.505 3.31559 203.199V197.172V18.8479C4.60179 20.0054 6.19319 20.9446 7.95899 21.5561C10.7276 22.4952 13.845 22.9757 17.2894 22.9757C20.3196 22.9757 23.5896 22.6044 27.0994 21.8618C28.233 21.6216 29.4538 21.3158 30.5874 20.7698C30.7182 20.7043 30.849 20.6388 30.958 20.5514V191.624ZM30.958 15.8122V15.9214C30.9144 16.0742 30.849 16.2053 30.7618 16.38C30.4566 16.926 29.8898 17.4502 29.1268 17.8214C28.3638 18.2146 27.4918 18.433 26.4236 18.6514C23.5678 19.2629 20.8864 19.6123 18.3794 19.6778L18.4012 12.5143L18.9026 12.4706C22.02 12.1867 25.2464 11.9028 28.1458 12.7764C29.432 13.1477 30.5438 13.9994 30.8926 14.8512C30.9798 15.0259 31.0234 15.2443 31.0234 15.419C30.9798 15.5282 30.958 15.6811 30.958 15.8122Z" fill="#DD4021"/>
<path d="M162.521 81.0045H95.7912C87.0712 81.0045 80.008 88.0807 80.008 96.8167V124.968C80.008 133.704 87.0712 140.781 95.7912 140.781H162.521C171.219 140.781 178.282 133.704 178.282 124.968V96.8167C178.282 88.0807 171.219 81.0045 162.521 81.0045ZM119.27 127.415C116.588 129.948 112.621 131.215 107.389 131.215C103.443 131.215 100.086 130.319 97.3172 128.528C94.5486 126.737 92.7392 124.073 91.8454 120.535L100.173 118.635C101.11 122.238 103.726 124.029 107.999 124.029C110.048 124.029 111.596 123.636 112.599 122.828C113.624 122.02 114.125 121.081 114.125 119.967C114.125 118.831 113.667 117.958 112.752 117.346C111.836 116.713 110.048 116.145 107.432 115.599C102.527 114.573 99.0612 113.197 96.9684 111.428C94.8974 109.68 93.851 107.103 93.851 103.718C93.851 100.289 95.0936 97.4064 97.5788 95.0476C100.064 92.7108 103.421 91.5314 107.694 91.5314C115.237 91.5314 120.076 94.5453 122.235 100.595L114.583 103.15C113.536 100.115 111.356 98.5857 108.021 98.5857C104.468 98.5857 102.68 99.7432 102.68 102.058C102.68 102.976 103.029 103.762 103.683 104.395C104.359 105.029 105.863 105.596 108.195 106.055C112.119 106.863 114.997 107.649 116.806 108.457C118.616 109.265 120.164 110.576 121.406 112.367C122.649 114.158 123.281 116.167 123.281 118.395C123.281 121.867 121.929 124.881 119.27 127.415ZM162.303 130.625H153.452V114.747H141.462V130.625H132.611V92.1211H141.462V107.125H153.452V92.1211H162.303V130.625Z" fill="#DD4021"/>
</svg>
