<svg width="173" height="222" viewBox="0 0 173 222" fill="none" xmlns="http://www.w3.org/2000/svg">
<path d="M82.7393 95.9737V123.052L113.706 140.935L144.677 123.052V87.2861L113.706 69.4069L90.261 82.9423V55.864L59.294 37.9849L28.3232 55.864V91.6261L59.294 109.509L82.7393 95.9737ZM90.261 95.9737L109.938 107.332V130.077L90.261 118.704V95.9737ZM117.46 130.089V107.373L137.155 95.9812V118.716L117.46 130.089ZM133.394 89.4712L113.736 100.84L94.0219 89.4524L113.699 78.0908L133.394 89.4712ZM82.7393 87.2861L63.0436 98.6552V75.9396L82.7393 64.5516V87.2861ZM78.9784 58.0378L59.3203 69.4032L39.6134 58.0303L59.294 46.6725L78.9784 58.0378ZM35.845 64.5404L55.5219 75.8982V98.6439L35.845 87.2861V64.5404Z" fill="#DD4021"/>
<path d="M169.239 154.835V55.9467L168.137 54.8448L114.394 1.10193L113.292 0H18.8043C14.8146 0 10.9882 1.58493 8.167 4.40613C5.3458 7.22733 3.76087 11.0537 3.76087 15.0435V141.943C2.62066 142.597 1.67282 143.54 1.01264 144.677C0.352453 145.814 0.00320252 147.104 0 148.419V203.087C0.00597173 208.072 1.98906 212.852 5.51426 216.377C9.03947 219.902 13.819 221.885 18.8043 221.891H154.196C159.181 221.885 163.961 219.902 167.486 216.377C171.011 212.852 172.994 208.072 173 203.087V161.315C172.997 160 172.649 158.708 171.988 157.571C171.328 156.433 170.38 155.49 169.239 154.835ZM65.0894 206.671H57.4172L48.5152 173.094H55.6947L61.1066 195.704L66.7968 173.094H74.0177L65.0894 206.671ZM84.8565 206.671H77.677V173.094H84.8565V206.671ZM121.138 206.671H114.744V183.79L108.2 206.671H102.724L96.2783 183.839V206.671H89.8848V173.094H99.475L105.432 194.67L111.45 173.094H121.138V206.671ZM161.717 153.793H79.3017L70.2756 143.466C69.5697 142.659 68.6995 142.013 67.7233 141.57C66.7471 141.127 65.6875 140.897 64.6155 140.897H11.2826V15.0435C11.2826 13.0486 12.0751 11.1354 13.4857 9.72481C14.8963 8.31421 16.8095 7.52174 18.8043 7.52174H107.975V46.2211C107.975 50.2109 109.559 54.0372 112.381 56.8584C115.202 59.6796 119.028 61.2646 123.018 61.2646H161.717V153.793Z" fill="#DD4021"/>
</svg>
