<svg width="311" height="312" viewBox="0 0 311 312" fill="none" xmlns="http://www.w3.org/2000/svg">
<path d="M190.322 153.289C197.171 147.24 201.489 138.465 201.489 128.644C201.489 110.571 186.786 95.7836 168.733 95.7836H160.544V81.1458H149.6V95.7836H139.736H133.222V81.1458H122.316V95.7836H106.533V106.762H122.353V205.269H106.533V216.247H122.353V230.885H133.259V216.21H139.773H149.637V230.847H160.581V216.21H177.294C195.31 216.21 210.051 201.46 210.051 183.349C210.014 169.944 201.899 158.33 190.322 153.289ZM139.736 106.762H168.696C180.719 106.762 190.509 116.62 190.509 128.644C190.509 140.705 180.719 150.526 168.696 150.526H133.222V106.762H139.736ZM177.257 205.231H139.736H133.222V161.504H168.696H177.22C189.243 161.504 198.995 171.288 198.995 183.349C198.995 195.41 189.28 205.231 177.257 205.231Z" fill="#DD4021"/>
<path d="M271.134 156.014C271.134 92.0112 219.245 39.9946 155.481 39.9946C150.084 39.9946 144.687 40.4054 139.289 41.1149L140.778 51.9812C145.654 51.2717 150.605 50.973 155.481 50.973C213.252 50.973 260.228 98.0978 260.228 155.79L260.19 156.836L271.134 156.014Z" fill="#DD4021"/>
<path d="M155.481 261.054C97.7476 261.054 50.7719 213.891 50.7719 156.012V155.602L39.8655 156.012C39.8655 219.978 91.7919 271.995 155.481 271.995C160.804 271.995 166.052 271.621 171.263 270.949L169.812 260.083C165.084 260.755 160.283 261.054 155.481 261.054Z" fill="#DD4021"/>
<path d="M155.481 0C69.7563 0 0 69.9778 0 156.012C0 242.047 69.7563 311.987 155.481 311.987C241.244 311.987 311 242.047 311 156.012C311 69.9778 241.244 0 155.481 0ZM155.481 301.046C75.7865 301.046 10.9064 235.998 10.9064 156.012C10.9064 76.0271 75.7865 10.9784 155.481 10.9784C235.251 10.9784 300.094 76.0271 300.094 156.012C300.094 235.998 235.251 301.046 155.481 301.046Z" fill="#DD4021"/>
</svg>
