<svg width="159" height="158" viewBox="0 0 159 158" fill="none" xmlns="http://www.w3.org/2000/svg">
<path d="M132.086 0H26.4172C19.4109 0 12.6916 2.7744 7.73742 7.71286C2.78323 12.6513 0 19.3493 0 26.3333L0 131.667C0 138.651 2.78323 145.349 7.73742 150.287C12.6916 155.226 19.4109 158 26.4172 158H132.086C139.092 158 145.812 155.226 150.766 150.287C155.72 145.349 158.503 138.651 158.503 131.667V26.3333C158.503 19.3493 155.72 12.6513 150.766 7.71286C145.812 2.7744 139.092 0 132.086 0V0ZM145.295 131.667C145.295 135.159 143.903 138.508 141.426 140.977C138.949 143.446 135.589 144.833 132.086 144.833H26.4172C22.9141 144.833 19.5544 143.446 17.0773 140.977C14.6002 138.508 13.2086 135.159 13.2086 131.667V26.3333C13.2086 22.8413 14.6002 19.4923 17.0773 17.0231C19.5544 14.5539 22.9141 13.1667 26.4172 13.1667H132.086C135.589 13.1667 138.949 14.5539 141.426 17.0231C143.903 19.4923 145.295 22.8413 145.295 26.3333V131.667Z" fill="#0B1F52" fill-opacity="0.97"/>
<path d="M79.2518 39.5C71.4146 39.5 63.7533 41.8166 57.2369 46.157C50.7205 50.4973 45.6415 56.6663 42.6423 63.884C39.6431 71.1017 38.8584 79.0438 40.3874 86.7061C41.9164 94.3683 45.6904 101.407 51.2321 106.931C56.7739 112.455 63.8345 116.217 71.5212 117.741C79.2078 119.265 87.1753 118.483 94.4159 115.493C101.657 112.504 107.845 107.441 112.199 100.945C116.554 94.4493 118.878 86.8124 118.878 79C118.878 68.5239 114.703 58.477 107.271 51.0693C99.8402 43.6616 89.7612 39.5 79.2518 39.5ZM79.2518 105.333C74.027 105.333 68.9195 103.789 64.5752 100.895C60.2309 98.0018 56.8449 93.8891 54.8455 89.0773C52.846 84.2655 52.3229 78.9708 53.3422 73.8626C54.3615 68.7545 56.8775 64.0623 60.572 60.3795C64.2665 56.6967 68.9736 54.1887 74.0981 53.1727C79.2225 52.1566 84.5341 52.6781 89.3612 54.6712C94.1883 56.6643 98.3141 60.0395 101.217 64.37C104.12 68.7005 105.669 73.7918 105.669 79C105.669 85.984 102.886 92.682 97.9316 97.6205C92.9774 102.559 86.2581 105.333 79.2518 105.333Z" fill="#0B1F52" fill-opacity="0.97"/>
<path d="M122.179 46.0832C127.651 46.0832 132.086 41.6621 132.086 36.2082C132.086 30.7544 127.651 26.3333 122.179 26.3333C116.708 26.3333 112.273 30.7544 112.273 36.2082C112.273 41.6621 116.708 46.0832 122.179 46.0832Z" fill="#0B1F52" fill-opacity="0.97"/>
</svg>
