<svg width="181" height="181" viewBox="0 0 181 181" fill="none" xmlns="http://www.w3.org/2000/svg">
<path d="M25.1846 0C11.3252 0 0 11.3135 0 25.1585C0 39.0035 11.3252 50.317 25.1846 50.317C39.0439 50.317 50.3692 39.0035 50.3692 25.1585C50.3692 11.3135 39.0439 0 25.1846 0ZM25.1846 8.38617C34.507 8.38617 41.9743 15.8457 41.9743 25.1585C41.9743 34.4713 34.507 41.9308 25.1846 41.9308C15.8622 41.9308 8.39487 34.4713 8.39487 25.1585C8.39487 15.8457 15.8622 8.38617 25.1846 8.38617ZM134.318 54.5101C120.897 54.5101 111.775 60.2113 104.936 66.7617V62.8962C104.936 60.7008 102.936 58.7034 100.738 58.7032H67.1589C64.9612 58.7034 62.9617 60.7008 62.9615 62.8962V176.109C62.9617 178.305 64.9612 180.302 67.1589 180.303H102.837C105.035 180.302 107.034 178.305 107.035 176.109V113.213C107.035 107.907 108.709 102.877 111.166 99.4547C113.624 96.0321 116.595 94.3444 119.627 94.3444H123.824C126.856 94.3444 129.827 96.0321 132.285 99.4547C134.742 102.877 136.417 107.907 136.417 113.213V176.109C136.417 178.305 138.416 180.302 140.614 180.303H176.292C178.49 180.302 180.489 178.305 180.49 176.109V153.048C180.521 150.832 178.51 148.795 176.292 148.795C174.074 148.795 172.063 150.832 172.095 153.048V171.916H144.811V113.213C144.811 106.208 142.718 99.6369 139.106 94.6064C135.494 89.576 130.094 85.9582 123.824 85.9582H119.627C113.357 85.9582 107.958 89.576 104.346 94.6064C100.734 99.6369 98.6397 106.208 98.6397 113.213V138.372C97.8223 138.371 96.9356 138.372 96.1475 138.372C93.9494 138.474 92.0429 140.566 92.1459 142.761C92.249 144.957 94.3429 146.861 96.541 146.758H98.6397V155.144C97.8223 155.143 96.9356 155.144 96.1475 155.144C93.9494 155.247 92.0429 157.338 92.1459 159.534C92.249 161.73 94.3429 163.634 96.541 163.53H98.6397V171.916H71.3564V67.0893H96.541V77.572C96.5401 79.2967 97.7198 80.9601 99.349 81.5311C100.978 82.1021 102.94 81.5398 104.018 80.1927C111.064 71.4161 118.574 62.8962 134.318 62.8962C149.374 62.8962 158.36 66.7625 163.962 73.3134C169.565 79.8644 172.095 89.8274 172.095 102.731V136.275C172.063 138.49 174.074 140.528 176.292 140.528C178.51 140.528 180.521 138.49 180.49 136.275V102.731C180.49 88.7529 177.866 76.6181 170.39 67.8755C162.913 59.1329 150.892 54.5101 134.318 54.5101ZM8.00136 58.7032C5.93797 58.8974 4.1885 60.8259 4.19743 62.8962V176.109C4.19765 178.305 6.19716 180.302 8.39487 180.303H44.073C46.2708 180.302 48.2703 178.305 48.2705 176.109V62.8962C48.2703 60.7008 46.2708 58.7034 44.073 58.7032C32.0615 58.7032 19.9835 58.7032 8.00136 58.7032ZM12.5923 67.0893H39.8756V138.372C39.0583 138.371 38.1716 138.372 37.3834 138.372C35.1853 138.474 33.2788 140.566 33.3819 142.761C33.4849 144.957 35.5789 146.861 37.7769 146.758H39.8756V155.144C39.0583 155.143 38.1716 155.144 37.3834 155.144C35.1853 155.247 33.2788 157.338 33.3819 159.534C33.4849 161.73 35.5789 163.634 37.7769 163.53H39.8756V171.916H12.5923V67.0893Z" fill="#0B1F52" fill-opacity="0.97"/>
</svg>
