<svg width="93" height="104" viewBox="0 0 93 104" fill="none" xmlns="http://www.w3.org/2000/svg">
<path d="M66.1445 64.7269L65.5726 64.4066C65.6832 63.4569 65.6832 62.4976 65.5726 61.5479L66.1393 61.2311C66.5014 61.0319 66.8197 60.7617 67.0753 60.4365C67.3309 60.1114 67.5185 59.738 67.6269 59.3386C67.7328 58.9473 67.7578 58.5385 67.7005 58.1371C67.6431 57.7358 67.5046 57.3504 67.2935 57.0046L65.0681 53.3097C64.6406 52.6207 63.9662 52.1217 63.1832 51.9154C62.4002 51.709 61.5681 51.8108 60.8576 52.1998L60.208 52.56C59.3711 51.9608 58.47 51.4573 57.5214 51.0588V50.4563C57.5118 49.6378 57.1793 48.8563 56.5966 48.2827C56.0139 47.7091 55.2283 47.39 54.4115 47.3951H49.9522C49.1354 47.39 48.3498 47.7091 47.7671 48.2827C47.1843 48.8563 46.8519 49.6378 46.8423 50.4563V51.0588C45.8944 51.4566 44.9944 51.9601 44.1591 52.56L43.5078 52.1998C42.7975 51.8113 41.9658 51.7098 41.1832 51.9161C40.4006 52.1225 39.7265 52.6211 39.299 53.3097L37.0702 57.0046C36.8598 57.351 36.7218 57.7368 36.6648 58.1383C36.6078 58.5398 36.6328 58.9488 36.7385 59.3403C36.8472 59.7385 37.0344 60.1107 37.289 60.4351C37.5436 60.7596 37.8605 61.0296 38.2209 61.2293L38.7928 61.5479C38.7374 62.0226 38.7097 62.5002 38.7098 62.9781C38.7104 63.4555 38.7381 63.9324 38.7928 64.4066L38.2226 64.7251C37.8617 64.9245 37.5445 65.1944 37.2895 65.5189C37.0346 65.8434 36.8472 66.2158 36.7385 66.6142C36.6327 67.0057 36.6077 67.4149 36.665 67.8165C36.7224 68.2181 36.8608 68.6037 37.072 68.9499L39.2973 72.6448C39.7265 73.3323 40.4013 73.8299 41.1839 74.0362C41.9666 74.2424 42.7983 74.1417 43.5095 73.7546L44.1591 73.3945C44.9941 73.9948 45.8942 74.4984 46.8423 74.8957V75.4913C46.8514 76.3101 47.1837 77.092 47.7665 77.666C48.3492 78.2399 49.1351 78.5593 49.9522 78.5542H54.4046C55.2217 78.5593 56.0075 78.2399 56.5903 77.666C57.1731 77.092 57.5054 76.3101 57.5145 75.4913V74.8887C58.4635 74.4911 59.3647 73.9876 60.2011 73.3876L60.8507 73.746C61.5608 74.1361 62.3931 74.2386 63.1763 74.0325C63.9595 73.8264 64.634 73.3273 65.0612 72.6379L67.2848 68.9464C67.4966 68.6002 67.6355 68.2143 67.6932 67.8124C67.7508 67.4104 67.7259 67.0009 67.62 66.609C67.512 66.2124 67.3258 65.8415 67.0724 65.5182C66.8189 65.195 66.5034 64.9259 66.1445 64.7269ZM62.1984 62.9781C62.1979 63.4057 62.1667 63.8328 62.1051 64.2559C62.0269 64.8623 62.1335 65.4782 62.411 66.0227C62.6886 66.5672 63.124 67.0148 63.66 67.3067L64.0971 67.5509L62.2692 70.5826L61.7094 70.271C61.1713 69.982 60.5623 69.8521 59.9534 69.8962C59.3445 69.9404 58.7606 70.1568 58.2695 70.5203C57.5855 71.0243 56.84 71.4386 56.0511 71.7531C55.472 71.9742 54.9725 72.3646 54.6176 72.8738C54.2627 73.3829 54.0687 73.9872 54.0608 74.6082V75.0982H50.2908V74.6082C50.2832 73.9872 50.0893 73.3828 49.7343 72.8736C49.3794 72.3644 48.8798 71.974 48.3005 71.7531C47.5119 71.438 46.7665 71.0237 46.0821 70.5203C45.5924 70.1551 45.0089 69.9377 44.4001 69.8935C43.7914 69.8493 43.1827 69.9803 42.6456 70.271L42.0841 70.5826L40.2562 67.5509L40.6864 67.3102C41.2236 67.0169 41.6597 66.5675 41.9372 66.0211C42.2148 65.4747 42.3208 64.8569 42.2413 64.249C42.1182 63.4033 42.1182 62.5442 42.2413 61.6986C42.3189 61.092 42.212 60.4761 41.9346 59.9315C41.6571 59.3868 41.2221 58.9388 40.6864 58.646L40.251 58.4036L42.0772 55.3719L42.637 55.6818C43.1746 55.9722 43.7837 56.1031 44.3929 56.0593C45.0021 56.0154 45.5862 55.7986 46.0769 55.4342C46.7618 54.9315 47.5071 54.5173 48.2953 54.2014C48.8743 53.9802 49.3735 53.5897 49.7281 53.0806C50.0827 52.5714 50.2764 51.9671 50.2839 51.3462V50.858H54.059V51.3462C54.0681 51.9671 54.2635 52.5708 54.6197 53.0788C54.976 53.5868 55.4765 53.9755 56.0563 54.1945C56.8455 54.5117 57.5914 54.9276 58.2764 55.4325C58.7678 55.7947 59.3516 56.0101 59.96 56.0536C60.5685 56.0971 61.1769 55.967 61.7146 55.6783L62.2744 55.3667L64.0989 58.4036L63.6704 58.6426C63.1315 58.9339 62.6934 59.382 62.4136 59.9279C62.1339 60.4737 62.0257 61.0916 62.1033 61.7003C62.1657 62.1234 62.1974 62.5504 62.1984 62.9781Z" fill="#0B1F52" fill-opacity="0.97"/>
<path d="M77.8344 81.3418C77.5104 81.0172 77.071 80.8348 76.6128 80.8348C76.1547 80.8348 75.7153 81.0172 75.3913 81.3418L74.1698 82.5659L69.2233 77.6088C73.0139 73.1828 74.9464 67.4575 74.6154 61.6344C74.2844 55.8112 71.7155 50.343 67.4479 46.3771C63.1802 42.4112 57.5457 40.2561 51.7266 40.364C45.9075 40.4719 40.3563 42.8344 36.238 46.9557C32.1197 51.0771 29.7544 56.6368 29.6385 62.4683C29.5226 68.2997 31.6651 73.9494 35.6165 78.2318C39.5678 82.5142 45.0207 85.0964 50.8309 85.4364C56.6411 85.7764 62.3568 83.8478 66.7786 80.0553L71.7268 85.0142L70.5053 86.2383C70.1814 86.563 69.9995 87.0033 69.9995 87.4624C69.9995 87.9216 70.1814 88.3619 70.5053 88.6866L85.1651 103.378C85.4891 103.703 85.9285 103.885 86.3866 103.885C86.8448 103.885 87.2841 103.703 87.6081 103.378L92.4942 98.4814C92.8181 98.1567 93 97.7164 93 97.2572C93 96.7981 92.8181 96.3578 92.4942 96.0331L77.8344 81.3418ZM65.6176 76.4435C62.5088 79.5596 58.418 81.4991 54.0422 81.9315C49.6665 82.3638 45.2765 81.2623 41.6204 78.8145C37.9642 76.3668 35.268 72.7244 33.9913 68.5078C32.7146 64.2912 32.9362 59.7615 34.6185 55.6903C36.3008 51.6192 39.3397 48.2586 43.2173 46.1811C47.0949 44.1036 51.5714 43.4379 55.8839 44.2972C60.1964 45.1565 64.0782 47.4878 66.8679 50.8939C69.6575 54.2999 71.1823 58.5699 71.1826 62.9763C71.1902 65.4784 70.7023 67.9572 69.747 70.2689C68.7917 72.5806 67.3881 74.6794 65.6176 76.4435ZM86.3866 99.7072L74.1698 87.4642L76.6128 85.0142L88.8297 97.2572L86.3866 99.7072Z" fill="#0B1F52" fill-opacity="0.97"/>
<path d="M52.1775 56.0522C50.8107 56.0522 49.4745 56.4584 48.338 57.2195C47.2015 57.9805 46.3157 59.0621 45.7927 60.3276C45.2696 61.5932 45.1327 62.9857 45.3994 64.3292C45.6661 65.6727 46.3243 66.9067 47.2908 67.8753C48.2573 68.8439 49.4887 69.5035 50.8293 69.7707C52.1699 70.038 53.5594 69.9008 54.8222 69.3766C56.085 68.8524 57.1644 67.9647 57.9238 66.8258C58.6831 65.6869 59.0885 64.3478 59.0885 62.978C59.0885 61.1412 58.3603 59.3796 57.0643 58.0808C55.7682 56.7819 54.0104 56.0522 52.1775 56.0522ZM52.1775 66.4409C51.4941 66.4409 50.826 66.2378 50.2578 65.8573C49.6895 65.4768 49.2466 64.936 48.9851 64.3032C48.7236 63.6705 48.6551 62.9742 48.7885 62.3025C48.9218 61.6307 49.2509 61.0137 49.7341 60.5294C50.2174 60.0451 50.8331 59.7153 51.5034 59.5817C52.1737 59.4481 52.8685 59.5166 53.4999 59.7787C54.1313 60.0408 54.671 60.4847 55.0506 61.0542C55.4303 61.6236 55.633 62.2931 55.633 62.978C55.633 63.8965 55.2689 64.7772 54.6209 65.4267C53.9729 66.0761 53.094 66.4409 52.1775 66.4409Z" fill="#0B1F52" fill-opacity="0.97"/>
<path d="M19.0051 1.73145V5.19434H1.72773C1.26951 5.19434 0.830054 5.37677 0.506042 5.70147C0.182029 6.02618 0 6.46658 0 6.92579V95.2297C0 95.6889 0.182029 96.1293 0.506042 96.454C0.830054 96.7787 1.26951 96.9611 1.72773 96.9611H70.837V93.4982H3.45547V8.65724H19.0051V12.1201C19.0051 12.5793 19.1871 13.0197 19.5111 13.3445C19.8351 13.6692 20.2746 13.8516 20.7328 13.8516H60.4706C60.9289 13.8516 61.3683 13.6692 61.6923 13.3445C62.0163 13.0197 62.1984 12.5793 62.1984 12.1201V8.65724H79.4757V76.1837H82.9312V6.92579C82.9312 6.46658 82.7491 6.02618 82.4251 5.70147C82.1011 5.37677 81.6617 5.19434 81.2034 5.19434H62.1984V1.73145C62.1984 1.27224 62.0163 0.831839 61.6923 0.507129C61.3683 0.18242 60.9289 0 60.4706 0H20.7328C20.2746 0 19.8351 0.18242 19.5111 0.507129C19.1871 0.831839 19.0051 1.27224 19.0051 1.73145ZM22.4605 3.4629H58.7429V10.3887H22.4605V3.4629Z" fill="#0B1F52" fill-opacity="0.97"/>
<path d="M70.8372 20.7773H12.0942V24.2402H70.8372V20.7773Z" fill="#0B1F52" fill-opacity="0.97"/>
<path d="M50.1044 31.166H12.0942V34.6289H50.1044V31.166Z" fill="#0B1F52" fill-opacity="0.97"/>
<path d="M31.0993 41.5549H12.0942V45.0178H31.0993V41.5549Z" fill="#0B1F52" fill-opacity="0.97"/>
<path d="M24.1884 51.9434H13.822C13.3637 51.9434 12.9243 52.1258 12.6003 52.4505C12.2763 52.7752 12.0942 53.2156 12.0942 53.6748V64.0635C12.0942 64.5227 12.2763 64.9631 12.6003 65.2878C12.9243 65.6125 13.3637 65.7949 13.822 65.7949H24.1884C24.6466 65.7949 25.086 65.6125 25.4101 65.2878C25.7341 64.9631 25.9161 64.5227 25.9161 64.0635V53.6748C25.9161 53.2156 25.7341 52.7752 25.4101 52.4505C25.086 52.1258 24.6466 51.9434 24.1884 51.9434ZM22.4606 62.332H15.5497V55.4063H22.4606V62.332Z" fill="#0B1F52" fill-opacity="0.97"/>
<path d="M25.9161 72.7207H12.0942V76.1836H25.9161V72.7207Z" fill="#0B1F52" fill-opacity="0.97"/>
<path d="M32.827 83.1096H12.0942V86.5725H32.827V83.1096Z" fill="#0B1F52" fill-opacity="0.97"/>
</svg>
