<svg width="286" height="287" viewBox="0 0 286 287" fill="none" xmlns="http://www.w3.org/2000/svg">
<path d="M282.688 5.77872C280.468 2.97761 277.272 1.12321 273.743 0.588711C270.214 0.0542107 266.615 0.879276 263.668 2.89787L236.194 22.0046C229.694 15.1568 221.862 9.71773 213.182 6.02336C204.501 2.32898 195.158 0.457798 185.728 0.525417C167.051 0.559015 149.149 8.01042 135.943 21.2475C122.736 34.4846 115.302 52.4284 115.269 71.1484C115.184 76.6176 115.823 82.0739 117.171 87.3744C83.8642 80.2146 64.3368 55.8969 56.2216 11.9641C55.7226 9.17782 54.4132 6.60154 52.458 4.55885C50.5027 2.51617 47.9889 1.09819 45.2321 0.48305C42.5387 -0.253952 39.6845 -0.145475 37.0544 0.793856C34.4243 1.73319 32.1448 3.45821 30.5232 5.73635C29.5511 7.21914 -49.0233 116.479 64.8018 209.556C53.8546 233.408 20.9709 253.446 7.95265 259.632C5.07329 261.124 2.76643 263.528 1.39061 266.47C0.0147832 269.412 -0.352939 272.727 0.344591 275.9C1.07366 279.067 2.85589 281.891 5.3984 283.908C7.9409 285.926 11.0924 287.016 14.335 287H39.1034C183.868 287 249.551 214.979 251.453 53.9905L281.42 25.3515C284.104 22.8798 285.734 19.4657 285.97 15.82C286.206 12.1742 285.031 8.57763 282.688 5.77872ZM62.3926 257.725C77.1437 245.016 91.43 228.07 95.699 208.116C96.3558 205.407 96.2097 202.566 95.2787 199.939C94.3478 197.313 92.6723 195.016 90.4579 193.33C22.8306 142.492 27.0573 86.4423 38.5962 53.0161C56.6865 95.9745 90.9651 117.92 139.53 118.386C142.145 118.439 144.722 117.751 146.965 116.402C149.208 115.053 151.026 113.098 152.21 110.76C153.611 108.503 154.27 105.863 154.096 103.211C153.922 100.558 152.922 98.0276 151.238 95.9745C146.054 88.912 143.242 80.3821 143.207 71.6144C143.218 60.483 147.635 49.8107 155.488 41.9396C163.341 34.0685 173.988 29.6416 185.094 29.6304C192.146 29.5861 199.09 31.3638 205.257 34.7921C211.424 38.2204 216.606 43.1837 220.302 49.2032C220.845 50.0748 221.499 50.8723 222.246 51.5756C221.908 189.009 174.738 250.566 62.3926 257.725Z" fill="#DD4021"/>
</svg>
