<svg width="383" height="356" viewBox="0 0 383 356" fill="none" xmlns="http://www.w3.org/2000/svg">
<path fill-rule="evenodd" clip-rule="evenodd" d="M381.963 125.016L378.312 113.119C379.727 110.688 380.757 108.015 380.757 104.988C380.757 98.1456 376.575 92.253 370.64 89.7253V55.4323V55.0942V55.0137C370.64 54.9408 370.62 54.8731 370.599 54.8047L370.598 54.8021C370.591 54.7796 370.585 54.7569 370.578 54.734C370.574 54.7174 370.57 54.7007 370.567 54.6837C370.564 54.6704 370.562 54.657 370.56 54.6434C370.528 53.6774 370.431 52.6953 370.078 51.7615C369.064 49.0889 366.813 47.0281 364.095 46.2392L251.994 13.4918C250.804 13.1215 248.021 13.1054 246.799 13.4757L208.955 24.5364V6.44C208.955 2.8819 206.06 0 202.521 0H52.7372C49.1828 0 46.3039 2.8819 46.3039 6.44V165.25C20.2811 168.535 0 190.576 0 217.495C0 234.915 8.55634 250.258 21.5838 259.918V318.619C21.5838 321.195 23.1118 323.529 25.476 324.528C27.8242 325.558 30.5744 325.059 32.4401 323.288L52.8177 303.92L73.34 323.304C74.5623 324.447 76.1385 325.059 77.7468 325.059C78.6153 325.059 79.4677 324.882 80.288 324.528C82.6523 323.513 84.1802 321.195 84.1802 318.619V259.87C95.5028 251.45 103.223 238.65 105.04 223.967H202.521C206.076 223.967 208.955 221.069 208.955 217.527V215.128C211.399 217.334 213.908 219.427 216.626 221.182C214.101 225.754 209.566 229.022 204.226 229.715L189.269 231.727C156.668 236.123 132.076 263.219 130.806 296.143L129.857 321.742C129.809 340.37 144.927 355.601 163.551 355.649L336.174 355.601C345.229 355.279 353.608 351.463 359.784 344.83C365.944 338.197 369.161 329.551 368.823 320.47L367.89 296.127C366.62 263.203 342.044 236.107 309.427 231.711L294.357 229.699C288.969 228.958 284.482 225.722 281.941 221.117C299.182 210.057 309.749 191.155 309.797 170.338V151.372V151.292V132.294C309.797 125.95 308.43 119.752 306.452 113.73H314.542C319.688 113.73 323.886 109.528 323.886 104.376V79.4535L357.725 66.2515V89.7253C351.791 92.2369 347.609 98.1295 347.609 104.988C347.609 107.983 348.622 110.655 350.022 113.07L346.435 125C345.888 126.755 345.599 128.591 345.599 130.49C345.631 140.73 353.962 149.038 364.159 149.038H364.175C366.008 149.038 367.842 148.764 369.595 148.217C374.34 146.768 378.232 143.548 380.58 139.168C382.928 134.805 383.395 129.766 381.963 125.016ZM360.524 104.988C360.524 102.96 362.181 101.301 364.207 101.301C366.234 101.301 367.89 102.96 367.89 104.988C367.874 109.045 360.524 109.045 360.524 104.988ZM71.3135 303.662L57.2084 290.347C54.7316 288.013 50.8394 288.013 48.3626 290.363L34.4344 303.598V266.89C40.1923 269.047 46.3522 270.383 52.8498 270.383C59.3636 270.383 65.5396 269.031 71.3135 266.874V303.662ZM52.8498 257.503C30.7996 257.503 12.8667 239.568 12.8667 217.495C12.8667 195.422 30.7996 177.47 52.8498 177.47C74.9001 177.47 92.833 195.422 92.833 217.495C92.833 239.568 74.9001 257.503 52.8498 257.503ZM105.04 211.055C104.156 203.858 101.888 197.161 98.3978 191.155H161.091C164.645 191.155 167.524 188.257 167.524 184.715C167.524 181.173 164.645 178.275 161.091 178.275H94.2162C92.5757 178.275 91.1282 178.935 89.9863 179.95C81.8642 171.9 71.0883 166.699 59.1545 165.25V12.88H196.072V28.2877L168.248 36.4182C167.218 34.2286 165.031 32.683 162.458 32.683H92.8008C89.2464 32.683 86.3675 35.5649 86.3675 39.123V78.3587C86.3675 81.9168 89.2464 84.7987 92.8008 84.7987H162.458C166.012 84.7987 168.891 81.9168 168.891 78.3587V77.1512L174.826 79.4696V104.376C174.826 109.528 179.008 113.73 184.17 113.73H192.196C190.234 119.752 188.85 125.95 188.85 132.294V170.467C188.867 180.449 191.552 189.916 196.088 198.481V211.055H105.04ZM128.393 57.4609C129.165 60.2301 131.24 62.4841 133.878 63.4823L155.494 71.9187H99.2342V45.563H136.95L134.698 46.2231C132.35 46.8832 130.404 48.4127 129.214 50.5379C128.023 52.6631 127.734 55.1264 128.393 57.4609ZM142.74 320.97L143.672 296.626C144.702 269.981 164.597 248.037 190.99 244.478L194.737 243.979L213.233 260.965L240.462 342.753H180.246V311.326C180.246 307.768 177.367 304.886 173.813 304.886C170.258 304.886 167.379 307.784 167.379 311.326V342.753H163.551C152.052 342.705 142.691 333.286 142.74 320.97ZM231.857 276.051C237.374 278.932 243.341 280.51 249.372 280.51C255.403 280.51 261.37 278.916 266.871 276.051L249.356 328.617L231.857 276.051ZM355.056 296.626L355.989 320.953C356.198 326.572 354.203 331.934 350.359 336.055C346.548 340.161 341.337 342.527 335.177 342.753H331.317V311.326C331.317 307.768 328.422 304.886 324.883 304.886C321.345 304.886 318.45 307.784 318.45 311.326V342.753H258.234L285.495 260.965L303.959 243.995L307.738 244.495C334.115 248.037 354.01 269.981 355.056 296.626ZM288.036 241.097L266.501 260.9C256.738 269.868 242.006 269.868 232.227 260.9L210.643 241.081C218.154 238.763 224.411 233.724 228.046 226.817C234.752 229.328 241.861 230.81 249.211 230.81H249.581C256.738 230.81 263.734 229.103 270.425 226.575C274.092 233.627 280.349 238.747 288.036 241.097ZM271.052 212.697C264.442 216.126 257.028 217.913 249.565 217.913H249.26C236.602 217.913 224.7 213.003 215.71 204.068C206.703 195.1 201.733 183.154 201.717 170.338V154.093L219.425 136.383C236.216 152.193 262.625 152.242 279.432 136.383L296.93 153.948V170.322C296.93 188.257 286.991 204.502 271.052 212.697ZM296.93 132.294V135.723L287.618 126.369C283.131 121.877 275.813 121.877 271.278 126.369C259.617 138.074 239.24 138.057 227.579 126.385C223.221 122.006 215.677 121.974 211.222 126.369L201.701 135.9V132.294C201.701 125.886 203.309 119.607 205.851 113.73H292.781C295.338 119.607 296.93 125.87 296.93 132.294ZM311.02 100.85H296.802C296.77 100.85 296.738 100.849 296.705 100.847C296.641 100.843 296.577 100.84 296.512 100.85H202.167C202.103 100.84 202.039 100.843 201.974 100.847C201.942 100.849 201.91 100.85 201.878 100.85H187.693V63.6916H311.02V100.85ZM323.902 65.6397V60.1657C323.902 55.0137 319.705 50.8116 314.558 50.8116H184.17C179.024 50.8116 174.826 54.9976 174.826 60.1657V65.6558L148.835 55.5128L249.356 26.1464L349.877 55.5128L323.902 65.6397ZM369.241 133.147C368.534 134.483 367.327 135.481 365.848 135.932C365.301 136.109 364.191 136.254 364.191 136.19C361.071 136.19 358.497 133.63 358.497 130.49C358.497 129.927 358.578 129.396 358.755 128.816L361.119 120.943C361.251 120.97 361.382 121 361.511 121.033C361.72 121.085 361.926 121.142 362.132 121.2L362.136 121.201C362.801 121.386 363.464 121.571 364.191 121.571C364.893 121.571 365.54 121.394 366.186 121.216L366.187 121.216C366.532 121.121 366.878 121.027 367.231 120.959L369.643 128.8C370.094 130.249 369.949 131.795 369.241 133.147ZM161.091 96.7612H94.2163C90.6619 96.7612 87.783 99.6431 87.783 103.201C87.783 106.759 90.6619 109.641 94.2163 109.641H161.091C164.645 109.641 167.524 106.759 167.524 103.201C167.524 99.6431 164.645 96.7612 161.091 96.7612ZM94.2163 123.938H161.091C164.645 123.938 167.524 126.82 167.524 130.378C167.524 133.936 164.645 136.818 161.091 136.818H94.2163C90.6619 136.818 87.783 133.936 87.783 130.378C87.783 126.82 90.6619 123.938 94.2163 123.938ZM161.091 151.114H94.2163C90.6619 151.114 87.783 153.996 87.783 157.554C87.783 161.112 90.6619 163.994 94.2163 163.994H161.091C164.645 163.994 167.524 161.112 167.524 157.554C167.524 153.996 164.645 151.114 161.091 151.114ZM21.5844 217.478C21.5844 200.219 35.6091 186.18 52.8504 186.18C70.0917 186.18 84.1164 200.219 84.1164 217.478C84.1164 234.737 70.0917 248.776 52.8504 248.776C35.6091 248.776 21.5844 234.737 21.5844 217.478ZM34.435 217.478C34.435 227.637 42.7018 235.896 52.8504 235.896C62.999 235.896 71.2498 227.637 71.2498 217.478C71.2498 207.319 62.999 199.06 52.8504 199.06C42.7018 199.06 34.435 207.319 34.435 217.478Z" fill="#0B1F52" fill-opacity="0.97"/>
</svg>
